<?xml version="1.0" encoding="UTF-8" standalone="no"?>
<svg
   width="72.2397"
   height="104.34307"
   viewBox="0 0 72.2397 104.34307"
   fill="none"
   version="1.1"
   id="svg100"
   sodipodi:docname="ssauloho_cropped.svg"
   inkscape:version="1.2.1 (9c6d41e410, 2022-07-14)"
   xmlns:inkscape="http://www.inkscape.org/namespaces/inkscape"
   xmlns:sodipodi="http://sodipodi.sourceforge.net/DTD/sodipodi-0.dtd"
   xmlns="http://www.w3.org/2000/svg"
   xmlns:svg="http://www.w3.org/2000/svg">
  <defs
     id="defs104" />
  <sodipodi:namedview
     id="namedview102"
     pagecolor="#ffffff"
     bordercolor="#111111"
     borderopacity="1"
     inkscape:showpageshadow="0"
     inkscape:pageopacity="0"
     inkscape:pagecheckerboard="1"
     inkscape:deskcolor="#d1d1d1"
     showgrid="false"
     inkscape:zoom="3.8186969"
     inkscape:cx="176.5"
     inkscape:cy="52.373887"
     inkscape:window-width="1920"
     inkscape:window-height="1017"
     inkscape:window-x="-8"
     inkscape:window-y="-8"
     inkscape:window-maximized="1"
     inkscape:current-layer="svg100" />
  <path
     d="m 109.404,31.504198 c 2.245,0 5.152,0.3455 6.983,0.8646 l -1.072,4.9081 c -1.176,-0.4153 -3.215,-0.6569 -4.735,-0.6569 -4.84,0 -6.637,0.6909 -6.637,7.3622 0,6.6372 1.797,7.5358 6.637,7.5358 1.52,0 3.559,-0.2775 4.735,-0.6569 l 1.072,5.0119 c -1.867,0.4833 -4.738,0.7948 -6.983,0.7948 -7.743,0 -11.4074,-2.9393 -11.4074,-12.7555 0,-9.8502 3.6644,-12.4081 11.4074,-12.4081 z"
     fill="#ffffff"
     id="path54" />
  <path
     d="m 130.748,36.931398 c -0.932,2.522 -2.039,5.7727 -3.145,9.1253 h 6.913 c -1.106,-3.2847 -2.144,-6.5693 -2.867,-9.1253 z m 5.358,13.9296 h -9.922 c -0.62,2.0048 -1.139,3.8359 -1.554,5.3234 h -5.946 c 2.006,-6.7411 5.774,-17.3181 8.54,-24.0913 h 8.604 c 2.282,7.5339 5.878,17.7995 8.47,24.0913 h -6.154 c -0.587,-1.4177 -1.312,-3.2847 -2.038,-5.3234 z"
     fill="#ffffff"
     id="path56" />
  <path
     d="m 167.349,32.092298 h 7.119 v 24.0913 h -5.39 v -16.2799 c -1.833,4.0436 -4.359,10.1976 -5.946,14.2751 h -4.425 c -1.52,-4.0096 -3.904,-10.4052 -5.633,-14.2751 v 16.2799 h -5.393 v -24.0913 h 7.466 c 2.004,4.0095 4.389,9.5746 6.188,14.1033 1.727,-4.5627 4.111,-10.1297 6.014,-14.1033 z"
     fill="#ffffff"
     id="path58" />
  <path
     d="m 190.153,36.931398 c -0.933,2.522 -2.039,5.7727 -3.145,9.1253 h 6.913 c -1.106,-3.2847 -2.147,-6.5693 -2.87,-9.1253 z m 5.357,13.9296 h -9.922 c -0.621,2.0048 -1.138,3.8359 -1.555,5.3234 h -5.945 c 2.007,-6.7411 5.773,-17.3181 8.539,-24.0913 h 8.606 c 2.282,7.5339 5.878,17.7995 8.47,24.0913 h -6.154 c -0.587,-1.4177 -1.312,-3.2847 -2.039,-5.3234 z"
     fill="#ffffff"
     id="path60" />
  <path
     d="m 218.594,44.085998 c 1.454,0 2.42,-1.0024 2.42,-3.5263 0,-2.6258 -0.829,-3.698 -2.35,-3.698 h -6.013 v 7.2243 z m -11.511,12.0985 v -24.0932 h 13.446 c 4.946,0 6.603,3.5263 6.603,8.4684 0,4.355 -2.074,8.1249 -6.565,8.1249 h -7.916 v 7.4999 z"
     fill="#ffffff"
     id="path62" />
  <path
     d="m 241.843,31.504198 c 2.247,0 5.15,0.3455 6.981,0.8646 l -1.068,4.9081 c -1.176,-0.4153 -3.215,-0.6569 -4.739,-0.6569 -4.836,0 -6.637,0.6909 -6.637,7.3622 0,6.6372 1.801,7.5358 6.637,7.5358 1.524,0 3.563,-0.2775 4.739,-0.6569 l 1.068,5.0119 c -1.865,0.4833 -4.734,0.7948 -6.981,0.7948 -7.743,0 -11.405,-2.9393 -11.405,-12.7555 0,-9.8502 3.662,-12.4081 11.405,-12.4081 z"
     fill="#ffffff"
     id="path64" />
  <path
     d="m 267.593,56.183898 c -3.077,-8.8478 -5.36,-10.8186 -9.162,-11.2339 v 11.2339 h -5.563 v -24.0913 h 5.563 v 11.5435 c 1.937,-2.1426 5.428,-6.5655 8.503,-11.5435 h 6.637 c -4.008,6.222 -6.807,9.8163 -7.879,10.8186 2.559,0.9666 5.01,2.7996 8.502,13.2727 z"
     fill="#ffffff"
     id="path66" />
  <path
     d="m 299.753,56.183898 h -5.497 v -15.8664 c -2.836,5.3593 -5.947,10.8205 -9.056,15.8664 h -7.292 v -24.0913 h 5.459 v 16.5215 c 3.319,-5.4273 6.601,-11.0263 9.577,-16.5215 h 6.809 z"
     fill="#ffffff"
     id="path68" />
  <path
     d="m 314.545,26.076898 c 0,1.4875 0.693,1.7971 2.076,1.7971 1.344,0 2.071,-0.3096 2.071,-1.7971 h 3.249 c 0,3.3885 -1.969,4.944 -5.461,4.944 -3.389,0 -5.427,-1.5555 -5.427,-4.944 z m 12.963,30.1075 h -5.497 v -15.8664 c -2.835,5.3574 -5.943,10.8186 -9.056,15.8664 h -7.292 v -24.0913 h 5.461 v 16.5196 c 3.317,-5.4254 6.604,-11.0244 9.575,-16.5196 h 6.809 z"
     fill="#ffffff"
     id="path70" />
  <path
     d="m 112.999,72.225198 h 3.872 c -3.145,8.0191 -8.019,17.7673 -11.995,24.0932 h -4.321 c 1.244,-1.6594 2.8,-4.0096 3.906,-5.9804 -1.488,-4.4947 -5.5973,-13.3425 -8.5025,-18.1128 h 4.1135 c 2.176,3.8717 4.874,9.5047 6.599,14.3109 2.387,-4.7703 4.946,-10.2315 6.328,-14.3109"
     fill="#ffffff"
     id="path72" />
  <path
     d="m 124.68,96.317798 h -3.492 v -24.0932 h 3.492 v 9.6445 h 11.543 v -9.6445 h 3.493 v 24.0932 h -3.493 v -11.2339 H 124.68 Z"
     fill="#ffffff"
     id="path74" />
  <path
     d="m 165.756,96.317798 h -3.458 v -18.9416 c -3.49,6.3598 -7.396,13.0311 -11.3,18.9416 h -4.668 v -24.0932 h 3.458 v 19.8062 c 4.213,-6.5675 8.191,-13.2727 11.717,-19.8062 h 4.251 z"
     fill="#ffffff"
     id="path76" />
  <path
     d="m 184.416,93.344298 c 2.108,0 2.869,-1.5555 2.869,-4.0436 0,-2.5937 -0.934,-4.321 -3.009,-4.321 h -8.398 v 8.3646 z m -8.538,-11.234 h 8.262 c 2.005,0 2.624,-1.5536 2.624,-3.5244 0,-2.1784 -0.585,-3.3885 -2.624,-3.3885 h -8.262 z m 15.175,7.5 c 0,4.5986 -2.248,6.7072 -6.12,6.7072 h -12.548 v -24.0932 h 12.272 c 4.807,0 5.807,2.454 5.807,5.7387 0,3.0071 -0.587,5.1157 -4.872,5.4971 4.561,0.2057 5.461,2.6938 5.461,6.1502 z"
     fill="#ffffff"
     id="path78" />
  <path
     d="m 213.748,72.225198 v 3.0071 h -13.482 v 6.845 h 9.576 v 2.9713 h -9.576 v 8.2607 h 13.482 v 3.0091 h -16.973 v -24.0932 z"
     fill="#ffffff"
     id="path80" />
  <path
     d="m 229.714,84.910198 c 2.386,0 3.562,-1.7631 3.562,-4.6665 0,-3.2488 -1.176,-5.0459 -3.424,-5.0459 h -7.604 v 9.7124 z m -10.99,11.4076 v -24.0932 h 11.647 c 5.22,0 6.777,3.6301 6.777,8.055 0,3.9397 -1.833,7.6378 -6.637,7.6378 h -8.263 v 8.4004 z"
     fill="#ffffff"
     id="path82" />
  <path
     d="m 252.342,71.636898 c 2.176,0 4.978,0.3813 6.809,0.9005 l -0.867,3.1449 c -1.381,-0.5191 -3.766,-0.8306 -5.529,-0.8306 -5.667,0 -7.775,1.1063 -7.775,9.2292 0,8.089 2.108,9.4708 7.775,9.4708 1.763,0 4.148,-0.3115 5.529,-0.7948 l 0.867,3.145 c -1.867,0.5531 -4.633,0.8986 -6.809,0.8986 -7.57,0 -11.164,-2.9373 -11.164,-12.7536 0,-9.8521 3.594,-12.41 11.164,-12.41 z"
     fill="#ffffff"
     id="path84" />
  <path
     d="m 283.397,96.317798 h -3.458 v -18.9416 c -3.493,6.3598 -7.397,13.0311 -11.3,18.9416 h -4.669 v -24.0932 h 3.457 v 19.8062 c 4.215,-6.5675 8.191,-13.2727 11.719,-19.8062 h 4.251 z"
     fill="#ffffff"
     id="path86" />
  <path
     d="m 296.213,96.317798 v -21.086 h -8.259 v -3.0072 H 308 v 3.0072 h -8.225 v 21.086 z"
     fill="#ffffff"
     id="path88" />
  <path
     d="m 329.532,72.225198 v 3.0071 h -13.48 v 6.845 h 9.576 v 2.9713 h -9.576 v 8.2607 h 13.48 v 3.0091 h -16.97 v -24.0932 z"
     fill="#ffffff"
     id="path90" />
  <path
     d="m 341.213,96.317798 v -21.086 h -8.263 v -3.0072 H 353 v 3.0072 h -8.229 v 21.086 z"
     fill="#ffffff"
     id="path92" />
  <g
     id="g267">
    <path
       fill-rule="evenodd"
       clip-rule="evenodd"
       d="m 36.1181,64.6116 c 0,-0.219 -0.1775,-0.3983 -0.3964,-0.4002 C 20.3895,63.9962 8.02666,51.5032 8.02666,36.12 8.02666,20.7349 20.3895,8.24187 35.7217,8.02856 35.9406,8.02478 36.1181,7.84733 36.1181,7.62647 V 0.402092 c 0,-0.107601 -0.0415,-0.20954 -0.1189,-0.28505 C 35.9218,0.0415326 35.8198,1.7951e-6 35.7122,1.7951e-6 15.9514,0.220867 0,16.3063 0,36.12 c 0,19.8118 15.9514,35.8972 35.7122,36.1181 0.1076,0.0019 0.2096,-0.0415 0.287,-0.1152 0.0774,-0.0774 0.1189,-0.1793 0.1189,-0.2869 z"
       fill="#ffffff"
       id="path94" />
    <path
       fill-rule="evenodd"
       clip-rule="evenodd"
       d="m 36.1216,96.7168 c 0,-0.2189 0.1774,-0.3983 0.3964,-0.4002 C 51.8502,96.1014 64.213,83.6084 64.213,68.2252 64.213,52.8401 51.8502,40.3471 36.518,40.1338 36.299,40.13 36.1216,39.9525 36.1216,39.7317 v -7.2225 c 0,-0.1076 0.0415,-0.2114 0.1189,-0.287 0.0774,-0.0755 0.1793,-0.117 0.2869,-0.1151 19.7609,0.219 35.7123,16.3044 35.7123,36.1181 0,19.8118 -15.9514,35.8988 -35.7123,36.1178 -0.1076,0.002 -0.2095,-0.039 -0.2869,-0.115 -0.0774,-0.077 -0.1189,-0.179 -0.1189,-0.287 z"
       fill="#ffffff"
       id="path96" />
    <path
       fill-rule="evenodd"
       clip-rule="evenodd"
       d="m 36.1175,56.1848 c 6.6467,0 12.0419,5.3895 12.0419,12.04 0,6.5203 -5.18,11.8267 -11.6474,12.0325 -0.217,0.0075 -0.3888,0.185 -0.3888,0.4021 v 7.2243 c 0,0.1095 0.0415,0.2115 0.1189,0.287 0.0774,0.0755 0.1831,0.117 0.2907,0.1151 10.8923,-0.219 19.6532,-9.1159 19.6532,-20.061 0,-11.0829 -8.9856,-20.0647 -20.0685,-20.0647 -6.6467,-0.0019 -12.0381,-5.3895 -12.0381,-12.04 0,-6.5203 5.1818,-11.8286 11.6492,-12.0344 0.2171,-0.0075 0.3889,-0.185 0.3889,-0.4002 v -7.2262 c 0,-0.1095 -0.0434,-0.2115 -0.1189,-0.287 -0.0774,-0.0755 -0.1831,-0.117 -0.2907,-0.1151 -10.8923,0.219 -19.6552,9.1159 -19.6552,20.0629 0,11.0829 8.9838,20.0647 20.0648,20.0647 z"
       fill="#ffffff"
       id="path98" />
  </g>
</svg>
